<?xml version="1.0" encoding="UTF-8"?><svg id="_レイヤー_2" xmlns="http://www.w3.org/2000/svg" viewBox="0 0 2540.12 466.26"><g id="_レイヤー_1-2"><g><polygon points="1369.41 0 1161.82 466.26 1297.9 466.26 1505.48 0 1369.41 0"/><polygon points="2138.09 0 1930.5 466.26 2066.58 466.26 2274.15 0 2138.09 0"/><polygon points="677.12 466.26 813.2 466.26 1020.78 0 884.71 0 677.12 466.26"/><polygon points="807.15 0 671.09 0 557.48 255.17 693.55 255.17 807.15 0"/><polygon points="503.54 212.42 557.48 91.28 408.53 91.28 449.17 0 313.1 0 272.46 91.28 126.89 91.28 72.96 212.42 218.53 212.42 199.49 255.17 53.93 255.17 0 376.31 145.56 376.31 105.51 466.26 241.59 466.26 281.63 376.31 430.57 376.31 484.51 255.17 335.56 255.17 354.6 212.42 503.54 212.42"/><polygon points="1701.66 222.24 1796.38 222.24 1773.89 273.66 1895.03 273.66 1970.5 101.1 1755.59 101.1 1800.6 0 1664.54 0 1619.53 101.1 1544.07 101.1 1491.09 222.24 1565.59 222.24 1456.95 466.26 1460.69 466.26 1593.03 466.26 1593.82 466.26 1869.48 466.26 1922.47 345.12 1646.96 345.12 1701.66 222.24"/><polygon points="2418.98 260.27 2363.31 373.54 2320.88 351.15 2475.99 0 2475.65 0 2339.59 0 2132 466.26 2445.42 466.26 2540.12 260.27 2418.98 260.27"/><polygon points="1282.09 0 1094.29 0 1040.36 121.14 1228.16 121.14 1282.09 0"/></g></g></svg>