<svg id="レイヤー_1" data-name="レイヤー 1" xmlns="http://www.w3.org/2000/svg" viewBox="0 0 2267.74 396.86"><defs><style>.cls-1{fill:#040000;}</style></defs><title>01_trim</title><g id="_01" data-name="01"><path class="cls-1" d="M910.31,157.58l27,40.76a12.27,12.27,0,0,0,10.23,5.5h145.17A12.39,12.39,0,0,0,1103,184.57l-27-40.76a12.27,12.27,0,0,0-10.23-5.5H920.54A12.39,12.39,0,0,0,910.31,157.58Z" transform="translate(-85.03 -85.03)"/><path class="cls-1" d="M518.82,250.7H403.52a24.23,24.23,0,0,1-20-10.65L372,223.22a12.39,12.39,0,0,1,10.15-19.38h96a12.39,12.39,0,0,0,10.23-19.27l-27-40.76a12.27,12.27,0,0,0-10.23-5.5h-124a24.23,24.23,0,0,1-20-10.65L281.8,90.43A12.28,12.28,0,0,0,271.65,85H205.72a12.39,12.39,0,0,0-10.15,19.38l9.85,14.5a12.39,12.39,0,0,1-10.15,19.38H97.35a12.39,12.39,0,0,0-10.23,19.27l27,40.76a12.27,12.27,0,0,0,10.23,5.5H237.5a48.48,48.48,0,0,1,40.09,21.3l4.2,6.18a12.39,12.39,0,0,1-10.15,19.38H165A12.39,12.39,0,0,0,154.79,270l27,40.76a12.27,12.27,0,0,0,10.23,5.5H313.88A48.48,48.48,0,0,1,354,337.52l94.43,139a12.28,12.28,0,0,0,10.15,5.39h65.93a12.39,12.39,0,0,0,10.15-19.38L448.41,335.61a12.39,12.39,0,0,1,10.15-19.38h87.3A12.39,12.39,0,0,0,556.09,297l-27-40.76A12.28,12.28,0,0,0,518.82,250.7Z" transform="translate(-85.03 -85.03)"/><path class="cls-1" d="M1629.52,411,1514.79,242.12c-11-16.24.51-38.29,20-38.29h62.35a20.26,20.26,0,0,1,19.17,13.83l29.88,88.55a12.29,12.29,0,0,0,10.17,5.43h66a12.39,12.39,0,0,0,10.17-19.35L1680.76,151.6a20.26,20.26,0,0,0-19-13.3H1450.72a12.28,12.28,0,0,1-10.15-5.39L1411.7,90.42A12.28,12.28,0,0,0,1401.55,85h-65.93a12.39,12.39,0,0,0-10.15,19.38l9.85,14.5a12.39,12.39,0,0,1-10.15,19.38h-20.4a12.39,12.39,0,0,0-10.23,19.27l27,40.76a12.27,12.27,0,0,0,10.23,5.5h54.72a12.28,12.28,0,0,1,10.15,5.39L1582,481.87h271.8A12.39,12.39,0,0,0,1864,462.6l-27-40.76a12.27,12.27,0,0,0-10.23-5.5H1639.65A12.19,12.19,0,0,1,1629.52,411Z" transform="translate(-85.03 -85.03)"/><path class="cls-1" d="M497.72,104.42,638.11,310.84a12.28,12.28,0,0,0,10.15,5.39h65.92a12.4,12.4,0,0,0,10.15-19.39L583.93,90.42A12.28,12.28,0,0,0,573.78,85H507.86A12.39,12.39,0,0,0,497.72,104.42Z" transform="translate(-85.03 -85.03)"/><path class="cls-1" d="M697.65,104.42,950.47,476.5a12.28,12.28,0,0,0,10.15,5.39h65.93a12.39,12.39,0,0,0,10.15-19.38L783.88,90.43A12.28,12.28,0,0,0,773.73,85H707.8A12.39,12.39,0,0,0,697.65,104.42Z" transform="translate(-85.03 -85.03)"/><path class="cls-1" d="M1169.47,481.89h71.13a12.34,12.34,0,0,0,12.29-12l10.63-372.08A12.34,12.34,0,0,0,1251.23,85H1180.1a12.34,12.34,0,0,0-12.29,12l-10.63,372.08A12.35,12.35,0,0,0,1169.47,481.89Z" transform="translate(-85.03 -85.03)"/><path class="cls-1" d="M2264.29,317.07l-46.83,69.33a24.19,24.19,0,0,1-40.13.05l-201.15-296A12.28,12.28,0,0,0,1966,85H1900.1A12.39,12.39,0,0,0,1890,104.42L2142.77,476.5a12.28,12.28,0,0,0,10.15,5.39h89.25a12.28,12.28,0,0,0,10.17-5.42L2350.61,331a12.39,12.39,0,0,0-10.17-19.36h-66A12.26,12.26,0,0,0,2264.29,317.07Z" transform="translate(-85.03 -85.03)"/><path class="cls-1" d="M1718.47,104.42,1971.29,476.5a12.28,12.28,0,0,0,10.15,5.39h65.93a12.39,12.39,0,0,0,10.15-19.38L1804.7,90.43A12.28,12.28,0,0,0,1794.55,85h-65.93A12.39,12.39,0,0,0,1718.47,104.42Z" transform="translate(-85.03 -85.03)"/></g></svg>