<?xml version="1.0" encoding="utf-8"?>
<!-- Generator: Adobe Illustrator 23.0.3, SVG Export Plug-In . SVG Version: 6.00 Build 0)  -->
<svg version="1.1" xmlns="http://www.w3.org/2000/svg" xmlns:xlink="http://www.w3.org/1999/xlink" x="0px" y="0px"
	 viewBox="0 0 2834.65 1417.32" style="enable-background:new 0 0 2834.65 1417.32;" xml:space="preserve">
<style type="text/css">
	.st0{fill:#040000;}
	.st1{display:none;}
	.st2{display:inline;}
	.st3{fill:#263B58;}
	.st4{display:inline;fill:#263B58;}
</style>
<g id="_x30_1">
	<g>
		<path class="st0" d="M1108.73,582.78l27.04,40.76c2.28,3.44,6.12,5.5,10.23,5.5h145.17c9.83,0,15.69-11.04,10.23-19.27
			l-27.04-40.76c-2.28-3.44-6.12-5.5-10.23-5.5h-145.17C1109.13,563.51,1103.27,574.55,1108.73,582.78z"/>
		<path class="st0" d="M717.24,675.9h-115.3c-8.02,0-15.52-3.98-20.05-10.65l-11.43-16.83c-5.59-8.22,0.26-19.38,10.15-19.38h96.01
			c9.83,0,15.69-11.04,10.23-19.27l-27.04-40.76c-2.28-3.44-6.12-5.5-10.23-5.5H525.57c-8.02,0-15.52-3.98-20.05-10.65l-25.3-37.23
			c-2.29-3.37-6.09-5.39-10.15-5.39h-65.93c-9.89,0-15.74,11.16-10.15,19.38l9.85,14.5c5.59,8.22-0.26,19.38-10.15,19.38h-97.92
			c-9.83,0-15.69,11.04-10.23,19.27l27.04,40.76c2.28,3.44,6.12,5.5,10.23,5.5h113.11c16.03,0,31.04,7.97,40.09,21.3l4.2,6.18
			c5.59,8.22-0.26,19.38-10.15,19.38H363.44c-9.83,0-15.69,11.04-10.23,19.27l27.04,40.76c2.28,3.44,6.12,5.5,10.23,5.5H512.3
			c16.03,0,31.04,7.97,40.09,21.3l94.43,138.97c2.29,3.37,6.09,5.39,10.15,5.39h65.93c9.89,0,15.74-11.16,10.15-19.38l-86.22-126.89
			c-5.59-8.22,0.26-19.38,10.15-19.38h87.3c9.83,0,15.69-11.04,10.23-19.27l-27.04-40.76C725.18,677.96,721.35,675.9,717.24,675.9z"
			/>
		<path class="st0" d="M1827.94,836.16l-114.73-168.84c-11.03-16.24,0.51-38.29,20.05-38.29h62.35c8.67,0,16.38,5.56,19.17,13.83
			l29.88,88.55c2.29,3.39,6.1,5.43,10.17,5.43h66c9.87,0,15.72-11.12,10.17-19.35l-51.82-140.69c-2.94-7.99-10.52-13.3-18.98-13.3
			h-211.06c-4.06,0-7.86-2.02-10.15-5.39l-28.87-42.49c-2.29-3.37-6.09-5.39-10.15-5.39h-65.93c-9.89,0-15.74,11.16-10.15,19.38
			l9.85,14.5c5.59,8.22-0.26,19.38-10.15,19.38h-20.4c-9.83,0-15.69,11.04-10.23,19.27l27.04,40.76c2.28,3.44,6.12,5.5,10.23,5.5
			h54.72c4.06,0,7.86,2.02,10.15,5.39l185.27,272.66h0.28h95.46h176.06c9.83,0,15.69-11.04,10.23-19.27l-27.04-40.76
			c-2.28-3.44-6.12-5.5-10.23-5.5h-187.06C1834.03,841.56,1830.23,839.54,1827.94,836.16z"/>
		<path class="st0" d="M696.14,529.62l140.39,206.42c2.29,3.37,6.09,5.39,10.15,5.39h65.92c9.89,0,15.74-11.17,10.15-19.39
			L782.35,515.62c-2.29-3.37-6.09-5.39-10.15-5.39h-65.92C696.39,510.24,690.54,521.4,696.14,529.62z"/>
		<path class="st0" d="M896.07,529.62l252.82,372.08c2.29,3.37,6.09,5.39,10.15,5.39h65.93c9.89,0,15.74-11.16,10.15-19.38
			L982.3,515.63c-2.29-3.37-6.09-5.39-10.15-5.39h-65.93C896.33,510.24,890.48,521.4,896.07,529.62z"/>
		<path class="st0" d="M1367.89,907.09h71.13c6.65,0,12.1-5.33,12.29-12.03l10.63-372.08c0.2-6.98-5.36-12.74-12.29-12.74h-71.13
			c-6.65,0-12.1,5.33-12.29,12.03l-10.63,372.08C1355.4,901.32,1360.96,907.09,1367.89,907.09z"/>
		<path class="st0" d="M2462.71,742.27l-46.83,69.33c-9.63,14.25-30.47,14.28-40.13,0.05L2174.6,515.63
			c-2.29-3.37-6.09-5.39-10.15-5.39h-65.93c-9.89,0-15.74,11.16-10.15,19.38l252.82,372.08c2.29,3.37,6.09,5.39,10.15,5.39h0.02
			h89.23h0c4.07,0,7.88-2.03,10.17-5.42l98.27-145.46c5.56-8.22-0.29-19.36-10.17-19.36h-65.99
			C2468.8,736.85,2465,738.88,2462.71,742.27z"/>
		<path class="st0" d="M1916.89,529.62l252.82,372.08c2.29,3.37,6.09,5.39,10.15,5.39h65.93c9.89,0,15.74-11.16,10.15-19.38
			l-252.82-372.08c-2.29-3.37-6.09-5.39-10.15-5.39h-65.93C1917.15,510.24,1911.3,521.4,1916.89,529.62z"/>
	</g>
</g>
<g id="_x30_2" class="st1">
	<g class="st2">
		<path class="st3" d="M1108.73,582.78l27.04,40.76c2.28,3.44,6.12,5.5,10.23,5.5h145.17c9.83,0,15.69-11.04,10.23-19.27
			l-27.04-40.76c-2.28-3.44-6.12-5.5-10.23-5.5h-145.17C1109.13,563.51,1103.27,574.55,1108.73,582.78z"/>
		<path class="st3" d="M717.24,675.9h-115.3c-8.02,0-15.52-3.98-20.05-10.65l-11.43-16.83c-5.59-8.22,0.26-19.38,10.15-19.38h96.01
			c9.83,0,15.69-11.04,10.23-19.27l-27.04-40.76c-2.28-3.44-6.12-5.5-10.23-5.5H525.57c-8.02,0-15.52-3.98-20.05-10.65l-25.3-37.23
			c-2.29-3.37-6.09-5.39-10.15-5.39h-65.93c-9.89,0-15.74,11.16-10.15,19.38l9.85,14.5c5.59,8.22-0.26,19.38-10.15,19.38h-97.92
			c-9.83,0-15.69,11.04-10.23,19.27l27.04,40.76c2.28,3.44,6.12,5.5,10.23,5.5h113.11c16.03,0,31.04,7.97,40.09,21.3l4.2,6.18
			c5.59,8.22-0.26,19.38-10.15,19.38H363.44c-9.83,0-15.69,11.04-10.23,19.27l27.04,40.76c2.28,3.44,6.12,5.5,10.23,5.5H512.3
			c16.03,0,31.04,7.97,40.09,21.3l94.43,138.97c2.29,3.37,6.09,5.39,10.15,5.39h65.93c9.89,0,15.74-11.16,10.15-19.38l-86.22-126.89
			c-5.59-8.22,0.26-19.38,10.15-19.38h87.3c9.83,0,15.69-11.04,10.23-19.27l-27.04-40.76C725.18,677.96,721.35,675.9,717.24,675.9z"
			/>
		<path class="st3" d="M1827.94,836.16l-114.73-168.84c-11.03-16.24,0.51-38.29,20.05-38.29h62.35c8.67,0,16.38,5.56,19.17,13.83
			l29.88,88.55c2.29,3.39,6.1,5.43,10.17,5.43h66c9.87,0,15.72-11.12,10.17-19.35l-51.82-140.69c-2.94-7.99-10.52-13.3-18.98-13.3
			h-211.06c-4.06,0-7.86-2.02-10.15-5.39l-28.87-42.49c-2.29-3.37-6.09-5.39-10.15-5.39h-65.93c-9.89,0-15.74,11.16-10.15,19.38
			l9.85,14.5c5.59,8.22-0.26,19.38-10.15,19.38h-20.4c-9.83,0-15.69,11.04-10.23,19.27l27.04,40.76c2.28,3.44,6.12,5.5,10.23,5.5
			h54.72c4.06,0,7.86,2.02,10.15,5.39l185.27,272.66h0.28h95.46h176.06c9.83,0,15.69-11.04,10.23-19.27l-27.04-40.76
			c-2.28-3.44-6.12-5.5-10.23-5.5h-187.06C1834.03,841.56,1830.23,839.54,1827.94,836.16z"/>
		<path class="st3" d="M696.14,529.62l140.39,206.42c2.29,3.37,6.09,5.39,10.15,5.39h65.92c9.89,0,15.74-11.17,10.15-19.39
			L782.35,515.62c-2.29-3.37-6.09-5.39-10.15-5.39h-65.92C696.39,510.24,690.54,521.4,696.14,529.62z"/>
		<path class="st3" d="M896.07,529.62l252.82,372.08c2.29,3.37,6.09,5.39,10.15,5.39h65.93c9.89,0,15.74-11.16,10.15-19.38
			L982.3,515.63c-2.29-3.37-6.09-5.39-10.15-5.39h-65.93C896.33,510.24,890.48,521.4,896.07,529.62z"/>
		<path class="st3" d="M1367.89,907.09h71.13c6.65,0,12.1-5.33,12.29-12.03l10.63-372.08c0.2-6.98-5.36-12.74-12.29-12.74h-71.13
			c-6.65,0-12.1,5.33-12.29,12.03l-10.63,372.08C1355.4,901.32,1360.96,907.09,1367.89,907.09z"/>
		<path class="st3" d="M2462.71,742.27l-46.83,69.33c-9.63,14.25-30.47,14.28-40.13,0.05L2174.6,515.63
			c-2.29-3.37-6.09-5.39-10.15-5.39h-65.93c-9.89,0-15.74,11.16-10.15,19.38l252.82,372.08c2.29,3.37,6.09,5.39,10.15,5.39h0.02
			h89.23h0c4.07,0,7.88-2.03,10.17-5.42l98.27-145.46c5.56-8.22-0.29-19.36-10.17-19.36h-65.99
			C2468.8,736.85,2465,738.88,2462.71,742.27z"/>
		<path class="st3" d="M1916.89,529.62l252.82,372.08c2.29,3.37,6.09,5.39,10.15,5.39h65.93c9.89,0,15.74-11.16,10.15-19.38
			l-252.82-372.08c-2.29-3.37-6.09-5.39-10.15-5.39h-65.93C1917.15,510.24,1911.3,521.4,1916.89,529.62z"/>
	</g>
</g>
<g id="_x30_3" class="st1">
	<path class="st4" d="M2551.18,425.2H283.46c-46.97,0-85.04,38.07-85.04,85.04v396.85c0,46.97,38.07,85.04,85.04,85.04h2267.72
		c46.97,0,85.04-38.07,85.04-85.04V510.24C2636.22,463.27,2598.15,425.2,2551.18,425.2z M744.28,741.43h-87.3
		c-9.89,0-15.74,11.16-10.15,19.38l86.22,126.89c5.59,8.22-0.26,19.38-10.15,19.38h-65.93c-4.06,0-7.86-2.02-10.15-5.39
		l-94.43-138.97c-9.06-13.33-24.06-21.3-40.09-21.3H390.49c-4.11,0-7.94-2.07-10.23-5.5l-27.04-40.76
		c-5.46-8.23,0.4-19.27,10.23-19.27h106.63c9.89,0,15.74-11.16,10.15-19.38l-4.2-6.18c-9.06-13.33-24.06-21.3-40.09-21.3H322.83
		c-4.11,0-7.94-2.07-10.23-5.5l-27.04-40.76c-5.46-8.23,0.4-19.27,10.23-19.27h97.92c9.89,0,15.74-11.16,10.15-19.38l-9.85-14.5
		c-5.59-8.22,0.26-19.38,10.15-19.38h65.93c4.06,0,7.86,2.02,10.15,5.39l25.3,37.23c4.53,6.66,12.03,10.65,20.05,10.65h124.01
		c4.11,0,7.94,2.07,10.23,5.5l27.04,40.76c5.46,8.23-0.4,19.27-10.23,19.27h-96.01c-9.89,0-15.74,11.16-10.15,19.38l11.43,16.83
		c4.53,6.66,12.03,10.65,20.05,10.65h115.3c4.11,0,7.94,2.07,10.23,5.5l27.04,40.76C759.97,730.39,754.11,741.43,744.28,741.43z
		 M912.59,741.43h-65.92c-4.06,0-7.85-2.02-10.15-5.39L696.14,529.62c-5.59-8.22,0.25-19.39,10.15-19.39h65.92
		c4.06,0,7.85,2.02,10.15,5.39l140.39,206.42C928.33,730.26,922.49,741.43,912.59,741.43z M1224.97,907.09h-65.93
		c-4.06,0-7.86-2.02-10.15-5.39L896.07,529.62c-5.59-8.22,0.26-19.38,10.15-19.38h65.93c4.06,0,7.86,2.02,10.15,5.39l252.82,372.08
		C1240.71,895.92,1234.87,907.09,1224.97,907.09z M1291.16,629.04H1146c-4.11,0-7.94-2.07-10.23-5.5l-27.04-40.76
		c-5.46-8.23,0.4-19.27,10.23-19.27h145.17c4.11,0,7.94,2.07,10.23,5.5l27.04,40.76C1306.85,618,1300.99,629.04,1291.16,629.04z
		 M1451.31,895.06c-0.19,6.7-5.64,12.03-12.29,12.03h-71.13c-6.93,0-12.49-5.77-12.29-12.74l10.63-372.08
		c0.19-6.7,5.64-12.03,12.29-12.03h71.13c6.93,0,12.49,5.77,12.29,12.74L1451.31,895.06z M2052.19,907.09h-176.06h-95.46h-0.28
		l-185.27-272.66c-2.29-3.37-6.09-5.39-10.15-5.39h-54.72c-4.11,0-7.94-2.07-10.23-5.5l-27.04-40.76
		c-5.46-8.23,0.4-19.27,10.23-19.27h20.4c9.89,0,15.74-11.16,10.15-19.38l-9.85-14.5c-5.59-8.22,0.26-19.38,10.15-19.38h65.93
		c4.06,0,7.86,2.02,10.15,5.39l28.87,42.49c2.29,3.37,6.09,5.39,10.15,5.39h211.06c8.46,0,16.04,5.3,18.98,13.3l51.82,140.69
		c5.55,8.22-0.3,19.35-10.17,19.35h-66c-4.07,0-7.88-2.03-10.17-5.43l-29.88-88.55c-2.79-8.27-10.5-13.83-19.17-13.83h-62.35
		c-19.54,0-31.08,22.05-20.05,38.29l114.73,168.84c2.29,3.37,6.09,5.39,10.15,5.39h187.06c4.11,0,7.94,2.07,10.23,5.5l27.04,40.76
		C2067.87,896.05,2062.01,907.09,2052.19,907.09z M2245.79,907.09h-65.93c-4.06,0-7.86-2.02-10.15-5.39l-252.82-372.08
		c-5.59-8.22,0.26-19.38,10.15-19.38h65.93c4.06,0,7.86,2.02,10.15,5.39l252.82,372.08
		C2261.53,895.92,2255.68,907.09,2245.79,907.09z M2549.03,756.2l-98.27,145.46c-2.29,3.39-6.1,5.42-10.17,5.42h-89.23h-0.02
		c-4.06,0-7.86-2.02-10.15-5.39l-252.82-372.08c-5.59-8.22,0.26-19.38,10.15-19.38h65.93c4.06,0,7.86,2.02,10.15,5.39l201.15,296.02
		c9.66,14.22,30.51,14.19,40.13-0.05l46.83-69.33c2.29-3.39,6.1-5.42,10.17-5.42h65.99C2548.74,736.85,2554.59,747.98,2549.03,756.2
		z"/>
</g>
</svg>
